<?xml version="1.0" encoding="utf-8"?>
<svg version="1.1" id="Icons" xmlns="http://www.w3.org/2000/svg" xmlns:xlink="http://www.w3.org/1999/xlink" x="0px" y="0px"
	 viewBox="0 0 22.4 22.2" style="enable-background:new 0 0 22.4 22.2;" xml:space="preserve">
<path d="M13,11.1l6.3-6.3c0.5-0.5,0.5-1.3,0-1.8c-0.5-0.5-1.3-0.5-1.8,0l-6.3,6.3L4.9,3C4.4,2.5,3.6,2.5,3.1,3
	c-0.5,0.5-0.5,1.3,0,1.8l6.3,6.3l-6.3,6.3c-0.5,0.5-0.5,1.3,0,1.8c0.5,0.5,1.3,0.5,1.8,0l6.3-6.3l6.3,6.3c0.5,0.5,1.3,0.5,1.8,0
	c0.5-0.5,0.5-1.3,0-1.8L13,11.1z"/>
</svg>
